<svg xmlns="http://www.w3.org/2000/svg" xmlns:xlink="http://www.w3.org/1999/xlink" width="392.858" height="37.938" viewBox="0 0 392.858 37.938">
  <defs>
    <clipPath id="clip-path">
      <path id="Path_470" data-name="Path 470" d="M97.905,812.128v37.938H490.764V812.128Z" fill="none" stroke="#707070" stroke-width="1"/>
    </clipPath>
    <clipPath id="clip-path-2">
      <rect id="Rectangle_233" data-name="Rectangle 233" width="180" height="16" transform="translate(88 710)" fill="#fff"/>
    </clipPath>
    <clipPath id="clip-path-3">
      <rect id="Rectangle_234" data-name="Rectangle 234" width="187" height="16" transform="translate(-7)" fill="#fff"/>
    </clipPath>
  </defs>
  <g id="Strip" transform="translate(-97.905 -812.128)" clip-path="url(#clip-path)">
    <g id="Strip-2" data-name="Strip" transform="translate(31.507 187)">
      <g id="Mask_Group_30" data-name="Mask Group 30" transform="translate(-88 -73)" clip-path="url(#clip-path-2)">
        <g id="Group_233" data-name="Group 233">
          <path id="Path_211" data-name="Path 211" d="M-1674.069,6636.446l14.864-19.844" transform="translate(1774 -5908)" fill="none" stroke="#fff" stroke-width="6"/>
          <path id="Path_221" data-name="Path 221" d="M-1674.069,6636.446l14.864-19.844" transform="translate(1860.817 -5908)" fill="none" stroke="#fff" stroke-width="6"/>
          <path id="Path_214" data-name="Path 214" d="M-1674.069,6636.446l14.864-19.844" transform="translate(1759.637 -5908)" fill="none" stroke="#fff" stroke-width="6"/>
          <path id="Path_222" data-name="Path 222" d="M-1674.069,6636.446l14.864-19.844" transform="translate(1846.455 -5908)" fill="none" stroke="#fff" stroke-width="6"/>
          <path id="Path_212" data-name="Path 212" d="M-1674.069,6636.446l14.864-19.844" transform="translate(1788.864 -5908)" fill="none" stroke="#fff" stroke-width="6"/>
          <path id="Path_220" data-name="Path 220" d="M-1674.069,6636.446l14.864-19.844" transform="translate(1875.681 -5908)" fill="none" stroke="#fff" stroke-width="6"/>
          <path id="Path_213" data-name="Path 213" d="M-1674.069,6636.446l14.864-19.844" transform="translate(1802.727 -5908)" fill="none" stroke="#fff" stroke-width="6"/>
          <path id="Path_219" data-name="Path 219" d="M-1674.069,6636.446l14.864-19.844" transform="translate(1889.544 -5908)" fill="none" stroke="#fff" stroke-width="6"/>
          <path id="Path_215" data-name="Path 215" d="M-1674.069,6636.446l14.864-19.844" transform="translate(1817.591 -5908)" fill="none" stroke="#fff" stroke-width="6"/>
          <path id="Path_218" data-name="Path 218" d="M-1674.069,6636.446l14.864-19.844" transform="translate(1904.408 -5908)" fill="none" stroke="#fff" stroke-width="6"/>
          <path id="Path_216" data-name="Path 216" d="M-1674.069,6636.446l14.864-19.844" transform="translate(1831.591 -5908)" fill="none" stroke="#fff" stroke-width="6"/>
          <path id="Path_217" data-name="Path 217" d="M-1674.069,6636.446l14.864-19.844" transform="translate(1918.408 -5908)" fill="none" stroke="#fff" stroke-width="6"/>
        </g>
      </g>
      <g id="Mask_Group_31" data-name="Mask Group 31" transform="translate(173 637)" clip-path="url(#clip-path-3)">
        <g id="Group_234" data-name="Group 234" transform="translate(-2.432 -1.398)">
          <path id="Path_223" data-name="Path 223" d="M-1674.069,6636.446l14.864-19.844" transform="translate(1688.432 -6616.602)" fill="none" stroke="#fff" stroke-width="6"/>
          <path id="Path_224" data-name="Path 224" d="M-1674.069,6636.446l14.864-19.844" transform="translate(1775.249 -6616.602)" fill="none" stroke="#fff" stroke-width="6"/>
          <path id="Path_225" data-name="Path 225" d="M-1674.069,6636.446l14.864-19.844" transform="translate(1674.069 -6616.602)" fill="none" stroke="#fff" stroke-width="6"/>
          <path id="Path_226" data-name="Path 226" d="M-1674.069,6636.446l14.864-19.844" transform="translate(1760.886 -6616.602)" fill="none" stroke="#fff" stroke-width="6"/>
          <path id="Path_227" data-name="Path 227" d="M-1674.069,6636.446l14.864-19.844" transform="translate(1703.295 -6616.602)" fill="none" stroke="#fff" stroke-width="6"/>
          <path id="Path_228" data-name="Path 228" d="M-1674.069,6636.446l14.864-19.844" transform="translate(1790.113 -6616.602)" fill="none" stroke="#fff" stroke-width="6"/>
          <path id="Path_229" data-name="Path 229" d="M-1674.069,6636.446l14.864-19.844" transform="translate(1717.159 -6616.602)" fill="none" stroke="#fff" stroke-width="6"/>
          <path id="Path_230" data-name="Path 230" d="M-1674.069,6636.446l14.864-19.844" transform="translate(1803.976 -6616.602)" fill="none" stroke="#fff" stroke-width="6"/>
          <path id="Path_231" data-name="Path 231" d="M-1674.069,6636.446l14.864-19.844" transform="translate(1732.023 -6616.602)" fill="none" stroke="#fff" stroke-width="6"/>
          <path id="Path_232" data-name="Path 232" d="M-1674.069,6636.446l14.864-19.844" transform="translate(1818.84 -6616.602)" fill="none" stroke="#fff" stroke-width="6"/>
          <path id="Path_233" data-name="Path 233" d="M-1674.069,6636.446l14.864-19.844" transform="translate(1746.023 -6616.602)" fill="none" stroke="#fff" stroke-width="6"/>
          <path id="Path_234" data-name="Path 234" d="M-1674.069,6636.446l14.864-19.844" transform="translate(1832.84 -6616.602)" fill="none" stroke="#fff" stroke-width="6"/>
        </g>
      </g>
      <g id="Mask_Group_32" data-name="Mask Group 32" transform="translate(346 637)" clip-path="url(#clip-path-3)">
        <g id="Group_235" data-name="Group 235" transform="translate(-2.432 -1.398)">
          <path id="Path_235" data-name="Path 235" d="M-1674.069,6636.446l14.864-19.844" transform="translate(1688.432 -6616.602)" fill="none" stroke="#fff" stroke-width="6"/>
          <path id="Path_236" data-name="Path 236" d="M-1674.069,6636.446l14.864-19.844" transform="translate(1775.249 -6616.602)" fill="none" stroke="#fff" stroke-width="6"/>
          <path id="Path_237" data-name="Path 237" d="M-1674.069,6636.446l14.864-19.844" transform="translate(1674.069 -6616.602)" fill="none" stroke="#fff" stroke-width="6"/>
          <path id="Path_238" data-name="Path 238" d="M-1674.069,6636.446l14.864-19.844" transform="translate(1760.886 -6616.602)" fill="none" stroke="#fff" stroke-width="6"/>
          <path id="Path_239" data-name="Path 239" d="M-1674.069,6636.446l14.864-19.844" transform="translate(1703.295 -6616.602)" fill="none" stroke="#fff" stroke-width="6"/>
          <path id="Path_240" data-name="Path 240" d="M-1674.069,6636.446l14.864-19.844" transform="translate(1790.113 -6616.602)" fill="none" stroke="#fff" stroke-width="6"/>
          <path id="Path_241" data-name="Path 241" d="M-1674.069,6636.446l14.864-19.844" transform="translate(1717.159 -6616.602)" fill="none" stroke="#fff" stroke-width="6"/>
          <path id="Path_242" data-name="Path 242" d="M-1674.069,6636.446l14.864-19.844" transform="translate(1803.976 -6616.602)" fill="none" stroke="#fff" stroke-width="6"/>
          <path id="Path_243" data-name="Path 243" d="M-1674.069,6636.446l14.864-19.844" transform="translate(1732.023 -6616.602)" fill="none" stroke="#fff" stroke-width="6"/>
          <path id="Path_244" data-name="Path 244" d="M-1674.069,6636.446l14.864-19.844" transform="translate(1818.84 -6616.602)" fill="none" stroke="#fff" stroke-width="6"/>
          <path id="Path_245" data-name="Path 245" d="M-1674.069,6636.446l14.864-19.844" transform="translate(1746.023 -6616.602)" fill="none" stroke="#fff" stroke-width="6"/>
          <path id="Path_246" data-name="Path 246" d="M-1674.069,6636.446l14.864-19.844" transform="translate(1832.84 -6616.602)" fill="none" stroke="#fff" stroke-width="6"/>
        </g>
      </g>
    </g>
  </g>
</svg>
