<svg xmlns="http://www.w3.org/2000/svg" xmlns:xlink="http://www.w3.org/1999/xlink" width="20" height="20" viewBox="0 0 20 20">
  <defs>
    <linearGradient id="linear-gradient" x1="0.789" x2="0" y2="1" gradientUnits="objectBoundingBox">
      <stop offset="0" stop-color="#fff"/>
      <stop offset="1" stop-color="#585858"/>
    </linearGradient>
  </defs>
  <g id="Tag" fill="url(#linear-gradient)">
    <path d="M 15.83752536773682 19.5126838684082 L 10.1252498626709 16.20593070983887 L 10 16.13342094421387 L 9.874750137329102 16.20593070983887 L 4.162474632263184 19.5126838684082 L 5.391860008239746 12.75885963439941 L 5.415520191192627 12.62887001037598 L 5.32144021987915 12.53608989715576 L 0.53943932056427 7.820189476013184 L 7.032760143280029 6.961929798126221 L 7.171259880065918 6.943630218505859 L 7.228250026702881 6.816080093383789 L 10 0.6128203272819519 L 12.77175045013428 6.816080093383789 L 12.82874011993408 6.943630218505859 L 12.96724033355713 6.961929798126221 L 19.4605598449707 7.820189476013184 L 14.67856025695801 12.53608989715576 L 14.58448028564453 12.62887001037598 L 14.60813999176025 12.75885963439941 L 15.83752536773682 19.5126838684082 Z" stroke="none"/>
    <path d="M 10 1.225629806518555 L 7.342519760131836 7.17317008972168 L 1.078897476196289 8.001066207885742 L 5.685139656066895 12.54364013671875 L 4.505289077758789 19.02536773681641 L 10 15.84456062316895 L 15.49471092224121 19.02536773681641 L 14.31485939025879 12.54364013671875 L 18.92110252380371 8.001066207885742 L 12.65748023986816 7.17317008972168 L 10 1.225629806518555 M 10 0 L 13 6.714090347290039 L 20 7.639320373535156 L 14.85410022735596 12.71409034729004 L 16.18033981323242 20 L 10 16.42229080200195 L 3.819660186767578 20 L 5.145899772644043 12.71409034729004 L 0 7.639320373535156 L 7 6.714090347290039 L 10 0 Z" stroke="none" fill="#fff"/>
  </g>
</svg>
