<svg id="star" xmlns="http://www.w3.org/2000/svg" width="29.258" height="28.775" viewBox="0 0 29.258 28.775">
  <g id="Tag" fill="#cf0">
    <path d="M 22.29523658752441 26.8415641784668 L 15.12367630004883 22.75855827331543 L 14.62890625 22.47687911987305 L 14.13413619995117 22.75855827331543 L 6.962576389312744 26.8415641784668 L 8.511186599731445 18.47439765930176 L 8.608686447143555 17.94758796691895 L 8.224105834960938 17.5745792388916 L 2.183391571044922 11.71566581726074 L 10.3691463470459 10.65155792236328 L 10.92064666748047 10.57985877990723 L 11.15067577362061 10.07352828979492 L 14.62890625 2.417597532272339 L 18.10713577270508 10.07352828979492 L 18.33716583251953 10.57985877990723 L 18.8886661529541 10.65155792236328 L 27.07442092895508 11.71566581726074 L 21.03370666503906 17.5745792388916 L 20.64912605285645 17.94758796691895 L 20.74662590026855 18.47439765930176 L 22.29523658752441 26.8415641784668 Z" stroke="none"/>
    <path d="M 14.62890625 4.83521842956543 L 11.6010570526123 11.49982833862305 L 4.366767883300781 12.44024467468262 L 9.689496994018555 17.60276794433594 L 8.337404251098633 24.90812683105469 L 14.62890625 21.32615852355957 L 20.92041015625 24.90812683105469 L 19.56831741333008 17.60276794433594 L 24.89104461669922 12.44024467468262 L 17.65675735473633 11.49982833862305 L 14.62890625 4.83521842956543 M 14.62890625 -1.9073486328125e-06 L 19.01757621765137 9.65989875793457 L 29.25781631469727 10.99107933044434 L 21.72992706298828 18.29240798950195 L 23.67006683349609 28.7750186920166 L 14.62890625 23.62758827209473 L 5.587745666503906 28.7750186920166 L 7.527885437011719 18.29240798950195 L -3.814697265625e-06 10.99107933044434 L 10.24023628234863 9.65989875793457 L 14.62890625 -1.9073486328125e-06 Z" stroke="none" fill="#fff"/>
  </g>
</svg>
